<?xml version="1.0" encoding="UTF-8"?>
<svg version="1.1" xmlns="http://www.w3.org/2000/svg" width="440" height="122">
<path d="M0 0 C0.93070312 0.50789062 1.86140625 1.01578125 2.8203125 1.5390625 C18.28749889 10.62980436 27.95633143 22.97808632 33.5625 39.875 C36.8357112 53.11868404 35.89009069 66.29361977 31 79 C30.67 79.33 30.34 79.66 30 80 C31.485 80.495 31.485 80.495 33 81 C33 82.32 33 83.64 33 85 C32.08476563 85.226875 31.16953125 85.45375 30.2265625 85.6875 C26.40670608 87.2413399 25.52351005 88.54668704 23.375 92 C14.74283927 104.490475 0.91804353 113.77406774 -14 117 C-18.08688674 117.30322181 -22.15328239 117.32467811 -26.25 117.3125 C-27.85294922 117.33666992 -27.85294922 117.33666992 -29.48828125 117.36132812 C-40.03475129 117.36773546 -48.90552492 115.32546405 -57.8125 109.625 C-58.73579102 109.06425781 -58.73579102 109.06425781 -59.67773438 108.4921875 C-71.18040505 101.36858233 -71.18040505 101.36858233 -73 95 C-73.66386719 95.15597656 -74.32773438 95.31195313 -75.01171875 95.47265625 C-75.89472656 95.66730469 -76.77773437 95.86195312 -77.6875 96.0625 C-78.55761719 96.25972656 -79.42773438 96.45695312 -80.32421875 96.66015625 C-83.16001276 97.02032279 -85.24789982 96.70909969 -88 96 C-88 94.68 -88 93.36 -88 92 C-85.03 91.01 -82.06 90.02 -79 89 C-79.39832031 88.39414063 -79.79664062 87.78828125 -80.20703125 87.1640625 C-80.73683594 86.32617188 -81.26664062 85.48828125 -81.8125 84.625 C-82.33457031 83.81289062 -82.85664062 83.00078125 -83.39453125 82.1640625 C-87.71694785 73.64543124 -88.49834355 65.58340596 -88.4375 56.125 C-88.4674707 54.48337891 -88.4674707 54.48337891 -88.49804688 52.80859375 C-88.48841595 36.5323241 -81.04305145 22.67462978 -70 11 C-51.71213713 -4.83633117 -22.17412918 -12.96232477 0 0 Z M-69.8125 18.39453125 C-73.12293354 22.33749405 -75.69497193 26.40444088 -78 31 C-78.58394531 32.13308594 -78.58394531 32.13308594 -79.1796875 33.2890625 C-85.03375684 46.06546202 -85.30497171 61.11987405 -80.88671875 74.328125 C-78.7811173 79.62146362 -76.41961517 84.44051311 -73 89 C-62.81750348 88.08920368 -52.6463174 87.09590965 -42.48120117 86.00805664 C-40.43667806 85.79273147 -38.39139646 85.58450031 -36.34545898 85.38305664 C-33.37270534 85.08930815 -30.40333685 84.77181968 -27.43359375 84.44921875 C-26.51597763 84.36363205 -25.59836151 84.27804535 -24.65293884 84.18986511 C-23.80768143 84.09329117 -22.96242401 83.99671722 -22.09155273 83.8972168 C-21.34751694 83.82029099 -20.60348114 83.74336517 -19.8368988 83.66410828 C-17.84101809 83.14610107 -17.84101809 83.14610107 -16.77844238 81.19584656 C-16.01447669 79.04083616 -15.64474377 77.24173035 -15.45336914 74.96923828 C-15.38312027 74.18807648 -15.3128714 73.40691467 -15.24049377 72.6020813 C-15.17273239 71.7665976 -15.10497101 70.93111389 -15.03515625 70.0703125 C-14.87323891 68.28774296 -14.71112336 66.50519142 -14.54882812 64.72265625 C-14.30362037 61.92301701 -14.06233998 59.12310845 -13.82543945 56.32275391 C-13.59318631 53.6125769 -13.34613815 50.90404275 -13.09765625 48.1953125 C-13.0319191 47.36387726 -12.96618195 46.53244202 -12.89845276 45.67581177 C-12.4468563 40.83096273 -11.52247581 37.27396805 -9 33 C-15.7831364 31.57997892 -22.06697907 30.77268784 -29 31 C-29 33.97 -29 36.94 -29 40 C-30.98 40.495 -30.98 40.495 -33 41 C-33.24234375 42.02738281 -33.4846875 43.05476563 -33.734375 44.11328125 C-36.4640294 55.49189108 -39.34819013 65.95312688 -45.73046875 75.90625 C-47.14421115 78.06351933 -47.14421115 78.06351933 -48 81 C-51.55353929 82.1845131 -54.27013478 82.26641894 -58 82 C-59.67578125 80.99609375 -59.67578125 80.99609375 -61 79 C-61.37674518 76.20748417 -61.60191941 73.61220799 -61.6875 70.8125 C-61.72166016 70.06291016 -61.75582031 69.31332031 -61.79101562 68.54101562 C-61.87334294 66.69453162 -61.93835281 64.84729006 -62 63 C-62.33 63.66 -62.66 64.32 -63 65 C-65.31 65 -67.62 65 -70 65 C-73.63975763 55.57945085 -71.17946027 45.56423343 -69 36 C-67.02 35.505 -67.02 35.505 -65 35 C-65.50038785 38.52525491 -66.00735152 42.04904587 -66.53515625 45.5703125 C-66.70917969 46.74335937 -66.88320312 47.91640625 -67.0625 49.125 C-67.23910156 50.30320313 -67.41570312 51.48140625 -67.59765625 52.6953125 C-67.94076372 55.51345735 -68.08016748 58.16741566 -68 61 C-65.9600281 59.63676257 -65.9600281 59.63676257 -64 58 C-64 57.34 -64 56.68 -64 56 C-63.34 56 -62.68 56 -62 56 C-60.68 53.03 -59.36 50.06 -58 47 C-57.01 47 -56.02 47 -55 47 C-55.45796188 52.44733605 -56.10522086 57.80365348 -57.0625 63.1875 C-57.82335113 67.55534908 -58.20108837 71.57605584 -58 76 C-56.27523089 76.95502158 -56.27523089 76.95502158 -54 77 C-44.14288544 68.56014424 -39.48250007 54.00918612 -38.1875 41.4375 C-37.84484 35.87586464 -38.4615958 31.33916751 -40 26 C-38.68 26 -37.36 26 -36 26 C-35.505 28.475 -35.505 28.475 -35 31 C-34.34 31 -33.68 31 -33 31 C-32.34 30.01 -31.68 29.02 -31 28 C-22.36634307 25.12211436 -12.82583908 27.23034044 -4.11572266 28.92822266 C0.67632591 29.83990198 5.16769738 30.23860384 10.05859375 30.0234375 C12 30 12 30 14.8125 30.75 C17.26333871 31.2728084 17.26333871 31.2728084 19.8125 29.0625 C20.534375 28.381875 21.25625 27.70125 22 27 C13.8495462 13.3850374 1.38187596 4.84049104 -13.85620117 0.46728516 C-34.59459086 -4.05307447 -55.4592062 3.19016074 -69.8125 18.39453125 Z M23 30 C22.236875 30.61875 21.47375 31.2375 20.6875 31.875 C18 34 18 34 15 36 C14.4049888 38.04667403 14.4049888 38.04667403 14.26171875 40.453125 C14.16673096 41.37279053 14.07174316 42.29245605 13.97387695 43.23999023 C13.87937256 44.23329346 13.78486816 45.22659668 13.6875 46.25 C12.36498143 58.24026373 9.47503177 69.47279107 6 81 C9.96 81 13.92 81 18 81 C18.33 81.66 18.66 82.32 19 83 C19 82.34 19 81.68 19 81 C21.31 81 23.62 81 26 81 C26.103125 80.236875 26.20625 79.47375 26.3125 78.6875 C27 75 27 75 27.734375 72.71484375 C31.88242182 59.74241432 31.08764326 46.59149168 26 34 C24.47680084 31.68776124 24.47680084 31.68776124 23 30 Z M-7 34 C-6.34 35.32 -5.68 36.64 -5 38 C-4.01 37.01 -3.02 36.02 -2 35 C-3.65 34.67 -5.3 34.34 -7 34 Z M-0.25390625 39.80859375 C-2.16097146 41.10983511 -3.74702293 41.57109627 -6 42 C-6.33 40.68 -6.66 39.36 -7 38 C-8.65 52.52 -10.3 67.04 -12 82 C-7.71 82 -3.42 82 1 82 C6.18381905 67.48530665 10.60835341 51.51301187 10 36 C5.35021257 35.29548675 3.19622368 37.01183716 -0.25390625 39.80859375 Z M17 84 C16.67 84.33 16.34 84.66 16 85 C12.93016348 85.24414016 9.8614327 85.38410674 6.78515625 85.5234375 C5.40650391 85.75933594 5.40650391 85.75933594 4 86 C3.34 86.99 2.68 87.98 2 89 C1.01 89.33 0.02 89.66 -1 90 C-1.495 88.02 -1.495 88.02 -2 86 C-17.92180308 87.38867816 -33.82932604 88.87367044 -49.69555664 90.80529785 C-51.1037579 90.97639 -52.51229038 91.14477824 -53.92114258 91.3104248 C-55.89245852 91.54353461 -57.86229389 91.78906387 -59.83203125 92.03515625 C-60.95327393 92.1731665 -62.0745166 92.31117676 -63.22973633 92.45336914 C-66.19798355 92.85528273 -66.19798355 92.85528273 -69 95 C-55.40294371 107.46632396 -41.22219207 113.53445609 -22.5625 112.9375 C-5.88347376 111.41187478 7.81350711 103.60097275 18.609375 90.9453125 C20.18047232 88.94933107 20.18047232 88.94933107 21 86 C19.68 85.34 18.36 84.68 17 84 Z " fill="#D6D6D6" transform="translate(88,5)"/>
<path d="M0 0 C0.93070312 0.50789062 1.86140625 1.01578125 2.8203125 1.5390625 C18.28749889 10.62980436 27.95633143 22.97808632 33.5625 39.875 C36.8357112 53.11868404 35.89009069 66.29361977 31 79 C30.67 79.33 30.34 79.66 30 80 C31.485 80.495 31.485 80.495 33 81 C33 82.32 33 83.64 33 85 C32.09636719 85.21785156 31.19273438 85.43570313 30.26171875 85.66015625 C26.31887143 87.27979293 25.15066946 88.9232453 22.8125 92.4375 C18.12604202 99.37937365 18.12604202 99.37937365 16 101 C14.68 101 13.36 101 12 101 C12.95762693 98.86375532 13.7473814 97.23649401 15.46875 95.625 C17.22089604 93.76557971 17.86010323 92.21589063 18.6875 89.8125 C18.93886719 89.09707031 19.19023438 88.38164063 19.44921875 87.64453125 C19.63097656 87.10183594 19.81273438 86.55914062 20 86 C18.515 85.505 18.515 85.505 17 85 C16.67 85.33 16.34 85.66 16 86 C13.98035801 86.07244053 11.95832876 86.08377188 9.9375 86.0625 C8.83277344 86.05347656 7.72804688 86.04445313 6.58984375 86.03515625 C5.73519531 86.02355469 4.88054687 86.01195313 4 86 C3.01 87.98 3.01 87.98 2 90 C1.01 90 0.02 90 -1 90 C-0.505 88.02 -0.505 88.02 0 86 C0 86.66 0 87.32 0 88 C0.66 88 1.32 88 2 88 C3.66767761 84.99818029 4.34468087 82.35369202 5 79 C5.50568324 77.05849077 6.02673205 75.12092347 6.5625 73.1875 C6.83191406 72.21167969 7.10132812 71.23585938 7.37890625 70.23046875 C7.58386719 69.49441406 7.78882812 68.75835937 8 68 C7.34 68 6.68 68 6 68 C5.896875 68.99 5.79375 69.98 5.6875 71 C5.09191294 75.28297163 3.61404973 78.99996371 2 83 C-2.95 83.33 -7.9 83.66 -13 84 C-13 83.34 -13 82.68 -13 82 C-8.38 81.67 -3.76 81.34 1 81 C7.19766932 59.32154566 7.19766932 59.32154566 9 37 C4.02796499 37.46251488 1.80759711 38.89380236 -2 42 C-3.32 42 -4.64 42 -6 42 C-5.67 40.35 -5.34 38.7 -5 37 C-4.34 37.33 -3.68 37.66 -3 38 C-3.66 38.99 -4.32 39.98 -5 41 C-4.5153125 40.566875 -4.030625 40.13375 -3.53125 39.6875 C0.08561887 36.68271664 2.66224683 34.57316693 7.5 34.625 C9.2325 34.810625 9.2325 34.810625 11 35 C11.495 41.93 11.495 41.93 12 49 C12.020625 46.958125 12.04125 44.91625 12.0625 42.8125 C12.49458661 36.61475763 12.49458661 36.61475763 14.625 34.0234375 C16.5625 32.6875 16.5625 32.6875 20 31 C12.33230176 34.83384912 0.10848352 31.83248244 -7.875 30 C-19.3230847 27.24255747 -19.3230847 27.24255747 -30.625 29.5 C-31.40875 29.995 -32.1925 30.49 -33 31 C-32.1875 29.0625 -32.1875 29.0625 -31 27 C-22.36634307 24.12211436 -12.82583908 26.23034044 -4.11572266 27.92822266 C0.67498421 28.83964672 5.16536203 29.23451856 10.0546875 29.02734375 C12 29 12 29 14.875 29.6875 C17.13403646 30.26708458 17.13403646 30.26708458 19.1328125 28.51953125 C19.74898438 28.01808594 20.36515625 27.51664063 21 27 C13.89650748 14.32161463 2.06693764 6.07073255 -11.7265625 1.86328125 C-28.20064138 -1.98463607 -44.98974744 1.20554921 -59.2109375 10.0234375 C-67.11344627 15.62381486 -72.62837739 22.40381242 -77 31 C-77.39058594 31.75667969 -77.78117187 32.51335938 -78.18359375 33.29296875 C-83.90943049 45.81430403 -84.49671085 61.08624835 -79.93359375 74.0234375 C-79.22982036 75.73505363 -78.4922279 77.43354894 -77.70703125 79.109375 C-77.47371094 79.73328125 -77.24039063 80.3571875 -77 81 C-77.495 81.99 -77.495 81.99 -78 83 C-87.26755258 68.47463822 -86.11592066 52.2473006 -83 36 C-87.43905983 48.23383749 -87.51933626 62.4639701 -84 75 C-83.67 75.33 -83.34 75.66 -83 76 C-82.95936168 77.66617115 -82.957279 79.33388095 -83 81 C-88.38252267 75.61747733 -88.40362846 66.64408029 -88.45898438 59.46484375 C-88.45189453 58.36269531 -88.44480469 57.26054688 -88.4375 56.125 C-88.4674707 54.48337891 -88.4674707 54.48337891 -88.49804688 52.80859375 C-88.48841595 36.5323241 -81.04305145 22.67462978 -70 11 C-51.71213713 -4.83633117 -22.17412918 -12.96232477 0 0 Z M23 30 C22.236875 30.61875 21.47375 31.2375 20.6875 31.875 C18 34 18 34 15 36 C14.4049888 38.04667403 14.4049888 38.04667403 14.26171875 40.453125 C14.16673096 41.37279053 14.07174316 42.29245605 13.97387695 43.23999023 C13.87937256 44.23329346 13.78486816 45.22659668 13.6875 46.25 C12.36498143 58.24026373 9.47503177 69.47279107 6 81 C9.96 81 13.92 81 18 81 C18.33 81.66 18.66 82.32 19 83 C19 82.34 19 81.68 19 81 C21.31 81 23.62 81 26 81 C26.103125 80.236875 26.20625 79.47375 26.3125 78.6875 C27 75 27 75 27.734375 72.71484375 C31.88242182 59.74241432 31.08764326 46.59149168 26 34 C24.47680084 31.68776124 24.47680084 31.68776124 23 30 Z " fill="#696969" transform="translate(88,5)"/>
<path d="M0 0 C2.97 0 5.94 0 9 0 C9.08564209 0.63091553 9.17128418 1.26183105 9.25952148 1.91186523 C9.64783714 4.75435681 10.04258081 7.59591869 10.4375 10.4375 C10.57220703 11.43072266 10.70691406 12.42394531 10.84570312 13.44726562 C10.97783203 14.39150391 11.10996094 15.33574219 11.24609375 16.30859375 C11.42676392 17.62041626 11.42676392 17.62041626 11.61108398 18.95874023 C11.79922202 20.98664505 11.79922202 20.98664505 13 22 C14.32 14.74 15.64 7.48 17 0 C19.97 0 22.94 0 26 0 C26.31813686 1.76982934 26.62911009 3.54094627 26.9375 5.3125 C27.11152344 6.29863281 27.28554687 7.28476562 27.46484375 8.30078125 C28.17018869 13.17641378 28.55398574 18.09384312 29 23 C30.32 15.41 31.64 7.82 33 0 C36.3 0 39.6 0 43 0 C42.02589099 7.08477413 41.04720222 14.16889446 40.06420898 21.25244141 C39.73025656 23.66372417 39.39757021 26.07518263 39.06616211 28.48681641 C38.59038423 31.94740705 38.11009988 35.4073463 37.62890625 38.8671875 C37.48095108 39.95055389 37.33299591 41.03392029 37.18055725 42.15011597 C37.04048752 43.1510025 36.90041779 44.15188904 36.75610352 45.18310547 C36.63396988 46.06690887 36.51183624 46.95071228 36.38600159 47.86129761 C36 50 36 50 35 52 C32.03 52 29.06 52 26 52 C25.88406494 51.31373535 25.76812988 50.6274707 25.64868164 49.92041016 C25.12324724 46.82137127 24.59293597 43.72318656 24.0625 40.625 C23.88009766 39.54476562 23.69769531 38.46453125 23.50976562 37.3515625 C23.33251953 36.3203125 23.15527344 35.2890625 22.97265625 34.2265625 C22.72914429 32.79691162 22.72914429 32.79691162 22.48071289 31.33837891 C22.1028932 28.99083032 22.1028932 28.99083032 21 27 C20.88406494 27.72179443 20.76812988 28.44358887 20.64868164 29.18725586 C20.12414346 32.43802949 19.59340709 35.68776073 19.0625 38.9375 C18.88009766 40.07380859 18.69769531 41.21011719 18.50976562 42.38085938 C18.33251953 43.46044922 18.15527344 44.54003906 17.97265625 45.65234375 C17.81031494 46.65257568 17.64797363 47.65280762 17.48071289 48.68334961 C17 51 17 51 16 52 C14.48071962 52.07179964 12.95832518 52.08392007 11.4375 52.0625 C10.61121094 52.05347656 9.78492188 52.04445312 8.93359375 52.03515625 C8.29550781 52.02355469 7.65742188 52.01195312 7 52 C5.9967639 45.55972654 5.00059485 39.11838824 4.00927734 32.67626953 C3.67137767 30.48591506 3.33187483 28.29580727 2.99072266 26.10595703 C2.49998706 22.95408961 2.01506749 19.80137333 1.53125 16.6484375 C1.37813354 15.67321136 1.22501709 14.69798523 1.06726074 13.69320679 C0.36538818 9.083171 -0.19187102 4.68028241 0 0 Z " fill="#FFFFFF" transform="translate(138,24)"/>
<path d="M0 0 C2.64 0 5.28 0 8 0 C9.10675619 2.1862225 10.21044378 4.37390948 11.3125 6.5625 C11.62123047 7.17158203 11.92996094 7.78066406 12.24804688 8.40820312 C12.55419922 9.01728516 12.86035156 9.62636719 13.17578125 10.25390625 C13.59210815 11.07870483 13.59210815 11.07870483 14.0168457 11.92016602 C15.42930048 14.90817254 16.6980856 17.96219974 18 21 C18.33 14.07 18.66 7.14 19 0 C22.3 0 25.6 0 29 0 C29 17.16 29 34.32 29 52 C26.03 52 23.06 52 20 52 C15.545 40.615 15.545 40.615 11 29 C10.67 36.59 10.34 44.18 10 52 C6.7 52 3.4 52 0 52 C0 34.84 0 17.68 0 0 Z " fill="#FFFFFF" transform="translate(202,24)"/>
<path d="M0 0 C4.68260067 4.2569097 6.87787502 8.55510711 7.22363281 14.77246094 C7.26915733 18.39007186 7.29776325 22.00712668 7.3125 25.625 C7.333125 26.87539063 7.35375 28.12578125 7.375 29.4140625 C7.4085324 37.34447403 7.28771975 43.94426343 2.0625 50.3125 C-2.56176082 53.92520376 -8.3502728 53.32624449 -13.9375 52.875 C-18.14011675 51.17606982 -20.35695133 48.5614981 -22.9375 44.875 C-24.70384632 39.57596105 -24.16310632 33.85591395 -24.17773438 28.30639648 C-24.18742021 26.08083438 -24.21844532 23.85620408 -24.25 21.63085938 C-24.25653272 20.20573462 -24.26178214 18.78060329 -24.265625 17.35546875 C-24.2749707 16.06535889 -24.28431641 14.77524902 -24.29394531 13.44604492 C-23.71559763 7.65187267 -21.36277279 3.60882392 -16.9375 -0.125 C-11.52568405 -1.92893865 -5.34481114 -2.04694895 0 0 Z M-12.9375 8.875 C-13.05077366 11.37254141 -13.10167191 13.8413999 -13.10546875 16.33984375 C-13.10879715 17.08835098 -13.11212555 17.83685822 -13.11555481 18.60804749 C-13.12062693 20.19433984 -13.12296305 21.7806429 -13.12280273 23.36694336 C-13.12498773 25.79884369 -13.14313581 28.23028949 -13.16210938 30.66210938 C-13.16504349 32.20051928 -13.16702817 33.73893134 -13.16796875 35.27734375 C-13.17515427 36.00759262 -13.18233978 36.73784149 -13.18974304 37.49021912 C-13.30459434 41.63769993 -13.30459434 41.63769993 -10.9375 44.875 C-8.4375 45.29166667 -8.4375 45.29166667 -5.9375 44.875 C-3.43722923 41.12459385 -3.69300698 39.13103515 -3.70703125 34.65234375 C-3.70748947 33.9510585 -3.70794769 33.24977325 -3.7084198 32.52723694 C-3.71143712 31.04703069 -3.71930791 29.56682747 -3.73168945 28.08666992 C-3.74996029 25.81743158 -3.75219896 23.54860114 -3.75195312 21.27929688 C-3.3524649 14.36800727 -3.3524649 14.36800727 -4.9375 7.875 C-9.26070086 7.37133499 -9.26070086 7.37133499 -12.9375 8.875 Z " fill="#FFFFFF" transform="translate(328.9375,24.125)"/>
<path d="M0 0 C21 0 21 0 27 4 C29.37450577 7.25293565 29.32889898 10.41953242 29.375 14.375 C29.40335937 15.47585937 29.43171875 16.57671875 29.4609375 17.7109375 C29 21 29 21 26.90625 23.9609375 C24.65500531 26.9001517 24.65500531 26.9001517 25.1953125 30.515625 C25.50210937 31.74796875 25.80890625 32.9803125 26.125 34.25 C26.43628117 35.56899077 26.74747878 36.88800127 27.05859375 38.20703125 C27.36925781 39.45871094 27.67992187 40.71039063 28 42 C28.40789384 43.9767163 28.80581331 45.95555651 29.1875 47.9375 C29.455625 49.278125 29.72375 50.61875 30 52 C26.7 52 23.4 52 20 52 C14 36.85714286 14 36.85714286 14 29 C12.68 29 11.36 29 10 29 C10 36.59 10 44.18 10 52 C6.7 52 3.4 52 0 52 C0 34.84 0 17.68 0 0 Z M10 8 C10 12.62 10 17.24 10 22 C15.01535052 21.67039784 15.01535052 21.67039784 19 19 C19.35609192 16.86181539 19.35609192 16.86181539 19.3125 14.5 C19.32925781 13.7059375 19.34601563 12.911875 19.36328125 12.09375 C19.24339844 11.4028125 19.12351562 10.711875 19 10 C15.76887492 7.4452998 15.76887492 7.4452998 10 8 Z " fill="#FFFFFF" transform="translate(378,24)"/>
<path d="M0 0 C3.63 0 7.26 0 11 0 C11.02505615 1.26183105 11.0501123 2.52366211 11.07592773 3.82373047 C11.16992106 8.49408569 11.27016131 13.16428937 11.37231445 17.83447266 C11.41569395 19.85787416 11.45736678 21.88131299 11.49731445 23.90478516 C11.55494408 26.80903384 11.6186594 29.71309411 11.68359375 32.6171875 C11.70030624 33.52556366 11.71701874 34.43393982 11.73423767 35.36984253 C11.75418289 36.21056305 11.77412811 37.05128357 11.79467773 37.91748047 C11.81022202 38.65916473 11.8257663 39.400849 11.84178162 40.16500854 C11.89473496 42.09674104 11.89473496 42.09674104 13 44 C14.65 44 16.3 44 18 44 C19.13019427 41.73961146 19.15268957 40.42881174 19.20532227 37.91748047 C19.22526749 37.07675995 19.24521271 36.23603943 19.26576233 35.36984253 C19.29083107 34.00727829 19.29083107 34.00727829 19.31640625 32.6171875 C19.33718735 31.68778351 19.35796844 30.75837952 19.37937927 29.80081177 C19.44487646 26.8256179 19.50376052 23.85033423 19.5625 20.875 C19.60568506 18.86066772 19.64929934 16.84634459 19.69335938 14.83203125 C19.80055803 9.88811337 19.90182501 4.94410497 20 0 C23.3 0 26.6 0 30 0 C30.09919164 6.13805474 30.17162165 12.27563853 30.21972656 18.41430664 C30.23978913 20.50065239 30.2670459 22.58694227 30.30175781 24.6730957 C30.35051159 27.67933978 30.37302267 30.68483769 30.390625 33.69140625 C30.41127014 34.61772354 30.43191528 35.54404083 30.45318604 36.49842834 C30.45525566 42.52927721 29.55410703 46.07779849 26 51 C21.10165614 53.88652406 15.51952384 53.54862737 10 53 C7 51.6875 7 51.6875 5 50 C4.443125 49.608125 3.88625 49.21625 3.3125 48.8125 C-0.58028387 43.43675084 -0.27608499 36.03960592 -0.1953125 29.6875 C-0.1924826 28.83317383 -0.18965271 27.97884766 -0.18673706 27.09863281 C-0.17563879 24.39893947 -0.15055427 21.69959123 -0.125 19 C-0.11495679 17.15755691 -0.1058333 15.31510857 -0.09765625 13.47265625 C-0.0757335 8.98164006 -0.04127646 4.49087832 0 0 Z " fill="#FFFFFF" transform="translate(341,24)"/>
<path d="M0 0 C4.43135421 2.21567711 6.95552361 4.48063113 9 9 C9.6875 12.3125 9.6875 12.3125 10 15 C2.57142857 17.42857143 2.57142857 17.42857143 -1 16 C-1.33 14.02 -1.66 12.04 -2 10 C-3.65 10 -5.3 10 -7 10 C-7.41890218 12.78938212 -7.41890218 12.78938212 -7 16 C-4.61214787 18.87946875 -2.02829234 20.97832927 0.9375 23.25 C5.6115819 27.15923214 9.31084999 31.7288346 10.5859375 37.78125 C10.87639493 42.81584544 10.42577328 46.16440511 7.1875 50.125 C3.88815008 53.53025498 0.84035209 54.17670247 -3.8125 54.3125 C-8.65483211 54.24897086 -11.35747097 53.37600252 -15 50 C-17.7189051 45.78100933 -18.5038363 41.96163704 -19 37 C-17.35567294 36.63890458 -15.7094792 36.28629924 -14.0625 35.9375 C-12.68771484 35.64166016 -12.68771484 35.64166016 -11.28515625 35.33984375 C-10.53105469 35.22769531 -9.77695312 35.11554687 -9 35 C-7.41727399 36.58272601 -7.65264253 38.38034003 -7.4375 40.5625 C-7.35371094 41.38878906 -7.26992188 42.21507812 -7.18359375 43.06640625 C-7.12300781 43.70449219 -7.06242187 44.34257813 -7 45 C-5.02 45 -3.04 45 -1 45 C-1.1987624 39.30201398 -1.1987624 39.30201398 -4 34.5625 C-4.99 33.716875 -5.98 32.87125 -7 32 C-18.20486132 21.81733656 -18.20486132 21.81733656 -19 15 C-18.77525942 10.04738343 -17.70071831 6.86242253 -14.5625 3 C-10.07149669 -0.50517332 -5.49999783 -0.67692281 0 0 Z " fill="#FFFFFF" transform="translate(430,23)"/>
<path d="M0 0 C1.11410952 3.34232856 0.84494103 4.34806214 0.0625 7.6875 C-1.95792764 18.35086811 -1.95518583 28.31795771 1.1875 38.6875 C1.4815271 39.67592896 1.4815271 39.67592896 1.78149414 40.68432617 C3.31199684 45.22886833 5.54116834 47.76760576 9 51 C9.33 51.99 9.66 52.98 10 54 C11.29292969 53.79503906 12.58585937 53.59007812 13.91796875 53.37890625 C23.60794894 51.86869467 33.19839233 50.51869822 43 50 C43 50.66 43 51.32 43 52 C49.93 52.495 49.93 52.495 57 53 C57 53.33 57 53.66 57 54 C55.79875488 54.14622803 54.59750977 54.29245605 53.35986328 54.44311523 C48.9127868 54.98544782 44.46631844 55.53263086 40.02001953 56.08129883 C38.09375038 56.31830563 36.1673178 56.55398801 34.24072266 56.78833008 C31.4751475 57.1249531 28.71019069 57.46629932 25.9453125 57.80859375 C25.0806839 57.91280136 24.2160553 58.01700897 23.32522583 58.12437439 C19.03029268 58.57572556 19.03029268 58.57572556 15 60 C28.21886488 71.97473642 42.54765282 77.50982741 60.4375 76.9375 C77.01185157 75.42144934 88.65743143 67.43240915 101 57 C99.47291037 60.43595166 97.40072955 63.11912454 95 66 C95.66 66.33 96.32 66.66 97 67 C84.6717629 77.77717907 72.98432566 82.36075899 56.75 82.3125 C55.14705078 82.33666992 55.14705078 82.33666992 53.51171875 82.36132812 C42.96524871 82.36773546 34.09447508 80.32546405 25.1875 74.625 C24.26420898 74.06425781 24.26420898 74.06425781 23.32226562 73.4921875 C11.81959495 66.36858233 11.81959495 66.36858233 10 60 C9.33613281 60.15597656 8.67226562 60.31195313 7.98828125 60.47265625 C7.10527344 60.66730469 6.22226563 60.86195312 5.3125 61.0625 C4.00732422 61.35833984 4.00732422 61.35833984 2.67578125 61.66015625 C-0.16001276 62.02032279 -2.24789982 61.70909969 -5 61 C-5 59.68 -5 58.36 -5 57 C-2.03 56.01 0.94 55.02 4 54 C3.0409375 52.7315625 3.0409375 52.7315625 2.0625 51.4375 C-0.20680647 48.05344649 -0.56571674 45.0533104 -1 41 C-1.65438441 38.99594773 -2.32060826 36.99571323 -3 35 C-5.25566033 23.97948812 -5.16770397 11.53802869 -1 1 C-0.67 0.67 -0.34 0.34 0 0 Z " fill="#606060" transform="translate(5,40)"/>
<path d="M0 0 C7.26 0 14.52 0 22 0 C22 2.64 22 5.28 22 8 C18.04 8 14.08 8 10 8 C10 12.29 10 16.58 10 21 C13.3 21 16.6 21 20 21 C20 23.64 20 26.28 20 29 C16.7 29 13.4 29 10 29 C10 34.28 10 39.56 10 45 C13.96 45 17.92 45 22 45 C22 47.31 22 49.62 22 52 C14.74 52 7.48 52 0 52 C0 34.84 0 17.68 0 0 Z " fill="#FFFFFF" transform="translate(237,24)"/>
<path d="M0 0 C1.32 0 2.64 0 4 0 C4.495 2.475 4.495 2.475 5 5 C5.66 5 6.32 5 7 5 C7.16276042 7.01822917 7.32552083 9.03645833 7.48828125 11.0546875 C7.87393036 13.39519216 7.87393036 13.39519216 11 15 C10.3709375 15.19722656 9.741875 15.39445312 9.09375 15.59765625 C6.70950936 16.87871869 6.70950936 16.87871869 6.09375 19.87109375 C5.8978125 21.04800781 5.701875 22.22492187 5.5 23.4375 C3.25321653 35.2000723 -0.82315545 49.55352838 -11 57 C-14.5625 57.5625 -14.5625 57.5625 -18 57 C-21.16489028 54.69048547 -21.92068592 53.44944643 -22.609375 49.546875 C-22.65578125 48.29390625 -22.7021875 47.0409375 -22.75 45.75 C-22.80671875 44.48671875 -22.8634375 43.2234375 -22.921875 41.921875 C-22.96054687 40.47554687 -22.96054687 40.47554687 -23 39 C-26.465 39.495 -26.465 39.495 -30 40 C-35.31181217 32.03228175 -32.4189614 22.15213631 -30.69140625 13.3671875 C-30.46324219 12.25601563 -30.23507813 11.14484375 -30 10 C-28.35 9.67 -26.7 9.34 -25 9 C-23.87213631 12.62981482 -24.42877513 14.84857767 -25.453125 18.49609375 C-26.56337458 23.57945077 -26.69970829 28.81601681 -27 34 C-26.54625 33.34 -26.0925 32.68 -25.625 32 C-25.08875 31.34 -24.5525 30.68 -24 30 C-23.34 30 -22.68 30 -22 30 C-21.82984375 29.36191406 -21.6596875 28.72382812 -21.484375 28.06640625 C-21.12085938 26.82697266 -21.12085938 26.82697266 -20.75 25.5625 C-20.40195312 24.32693359 -20.40195312 24.32693359 -20.046875 23.06640625 C-19 21 -19 21 -16.953125 20.15234375 C-16.30859375 20.10207031 -15.6640625 20.05179688 -15 20 C-14.67 20.33 -14.34 20.66 -14 21 C-14.14824652 26.43950675 -15.11962266 31.84003853 -16.0625 37.1875 C-16.82335113 41.55534908 -17.20108837 45.57605584 -17 50 C-15.35 50 -13.7 50 -12 50 C-11.61134766 49.21496094 -11.61134766 49.21496094 -11.21484375 48.4140625 C-10.28552794 46.5673835 -9.33652296 44.73060055 -8.37890625 42.8984375 C-1.10372175 28.78614414 2.44044385 15.99846522 0 0 Z " fill="#DCDCDC" transform="translate(48,31)"/>
<path d="M0 0 C9.24 0 18.48 0 28 0 C28 2.97 28 5.94 28 9 C25.36 9 22.72 9 20 9 C20 23.19 20 37.38 20 52 C16.37 52 12.74 52 9 52 C8.67 37.81 8.34 23.62 8 9 C5.69 9 3.38 9 1 9 C0.67 8.67 0.34 8.34 0 8 C0 5.36 0 2.72 0 0 Z " fill="#FFFFFF" transform="translate(275,24)"/>
<path d="M0 0 C7.62068996 9.04001617 8.01898355 22.5138867 7.24951172 33.80029297 C5.72058087 47.27941913 5.72058087 47.27941913 2 51 C2.99 51.33 3.98 51.66 5 52 C5 53.32 5 54.64 5 56 C4.09636719 56.21785156 3.19273438 56.43570313 2.26171875 56.66015625 C-1.68112857 58.27979293 -2.84933054 59.9232453 -5.1875 63.4375 C-9.87395798 70.37937365 -9.87395798 70.37937365 -12 72 C-13.32 72 -14.64 72 -16 72 C-15.04237307 69.86375532 -14.2526186 68.23649401 -12.53125 66.625 C-10.77910396 64.76557971 -10.13989677 63.21589063 -9.3125 60.8125 C-8.93544922 59.73935547 -8.93544922 59.73935547 -8.55078125 58.64453125 C-8.36902344 58.10183594 -8.18726563 57.55914062 -8 57 C-8.99 56.67 -9.98 56.34 -11 56 C-11.33 56.33 -11.66 56.66 -12 57 C-14.01964199 57.07244053 -16.04167124 57.08377188 -18.0625 57.0625 C-19.16722656 57.05347656 -20.27195312 57.04445312 -21.41015625 57.03515625 C-22.26480469 57.02355469 -23.11945313 57.01195312 -24 57 C-24.66 58.32 -25.32 59.64 -26 61 C-26.99 61 -27.98 61 -29 61 C-28.67 59.68 -28.34 58.36 -28 57 C-28 57.66 -28 58.32 -28 59 C-27.34 59 -26.68 59 -26 59 C-24.33232239 55.99818029 -23.65531913 53.35369202 -23 50 C-22.49431676 48.05849077 -21.97326795 46.12092347 -21.4375 44.1875 C-21.16808594 43.21167969 -20.89867188 42.23585937 -20.62109375 41.23046875 C-20.31365234 40.12638672 -20.31365234 40.12638672 -20 39 C-20.66 39 -21.32 39 -22 39 C-22.103125 39.99 -22.20625 40.98 -22.3125 42 C-22.90808706 46.28297163 -24.38595027 49.99996371 -26 54 C-30.95 54.33 -35.9 54.66 -41 55 C-41 54.34 -41 53.68 -41 53 C-36.38 52.67 -31.76 52.34 -27 52 C-20.80233068 30.32154566 -20.80233068 30.32154566 -19 8 C-23.97203501 8.46251488 -26.19240289 9.89380236 -30 13 C-31.32 13 -32.64 13 -34 13 C-33.67 11.35 -33.34 9.7 -33 8 C-32.34 8.33 -31.68 8.66 -31 9 C-31.99 10.485 -31.99 10.485 -33 12 C-32.5153125 11.566875 -32.030625 11.13375 -31.53125 10.6875 C-27.91438113 7.68271664 -25.33775317 5.57316693 -20.5 5.625 C-19.345 5.74875 -18.19 5.8725 -17 6 C-16.505 12.93 -16.505 12.93 -16 20 C-15.67 20 -15.34 20 -15 20 C-14.55460874 27.58608536 -15.74787381 33.90196464 -18 41.125 C-18.28617188 42.08148438 -18.57234375 43.03796875 -18.8671875 44.0234375 C-19.56603458 46.35292777 -20.2770298 48.67790687 -21 51 C-11.96621066 52.07531017 -11.96621066 52.07531017 -3 51 C-2.8659375 50.26910156 -2.731875 49.53820312 -2.59375 48.78515625 C-2.05185995 46.2432641 -1.31209857 43.90221916 -0.5 41.4375 C1.33940551 34.93707665 1.50076796 28.44217753 1.70898438 21.73022461 C1.73541016 20.88983643 1.76183594 20.04944824 1.7890625 19.18359375 C1.81540771 18.04748657 1.81540771 18.04748657 1.84228516 16.88842773 C2 15 2 15 3 13 C2.45277626 10.64024611 2.45277626 10.64024611 1.5625 8.0625 C0.6012145 5.13553654 0 3.10076626 0 0 Z " fill="#686868" transform="translate(116,34)"/>
<path d="M0 0 C3.63 0 7.26 0 11 0 C11 17.16 11 34.32 11 52 C7.37 52 3.74 52 0 52 C0 34.84 0 17.68 0 0 Z " fill="#FFFFFF" transform="translate(184,24)"/>
<path d="M0 0 C4.20606445 3.10530378 8.29985534 6.29985534 12 10 C11.505 11.485 11.505 11.485 11 13 C10.41734375 12.43152344 9.8346875 11.86304687 9.234375 11.27734375 C-3.81390624 -1.01183937 -18.1128241 -7.71001372 -36.1706543 -7.54101562 C-52.29900686 -6.86821428 -66.00037389 0.16661425 -77.06640625 11.8046875 C-81.46966037 16.80393764 -84.79230295 22.17862387 -88 28 C-88.64453125 26.24609375 -88.64453125 26.24609375 -89 24 C-88.07421875 22.03515625 -88.07421875 22.03515625 -86.6875 20.0625 C-85.17558107 17.82551914 -84.02038091 16.05823116 -83.125 13.5 C-79.37928626 5.17619169 -71.41249111 -0.84231773 -63.109375 -4.15234375 C-60.09194116 -5.17749755 -57.05309082 -6.08772187 -54 -7 C-53.24589844 -7.30035156 -52.49179687 -7.60070312 -51.71484375 -7.91015625 C-34.62369112 -14.39092841 -14.80188165 -9.60594089 0 0 Z " fill="#929292" transform="translate(95,11)"/>
<path d="M0 0 C0.92232422 0.00902344 1.84464844 0.01804688 2.79492188 0.02734375 C5.05105809 0.0507234 7.30663684 0.08349084 9.5625 0.125 C9.5625 0.455 9.5625 0.785 9.5625 1.125 C7.94794922 1.16367188 7.94794922 1.16367188 6.30078125 1.203125 C-11.43892573 1.81125024 -26.96911914 6.40206653 -39.47265625 19.7421875 C-42.66575197 23.61453022 -45.16535463 27.65714228 -47.4375 32.125 C-47.82808594 32.88167969 -48.21867187 33.63835938 -48.62109375 34.41796875 C-54.34693049 46.93930403 -54.93421085 62.21124835 -50.37109375 75.1484375 C-49.66732036 76.86005363 -48.9297279 78.55854894 -48.14453125 80.234375 C-47.91121094 80.85828125 -47.67789063 81.4821875 -47.4375 82.125 C-47.9325 83.115 -47.9325 83.115 -48.4375 84.125 C-57.70505258 69.59963822 -56.55342066 53.3723006 -53.4375 37.125 C-57.87655983 49.35883749 -57.95683626 63.5889701 -54.4375 76.125 C-54.1075 76.455 -53.7775 76.785 -53.4375 77.125 C-53.39686168 78.79117115 -53.394779 80.45888095 -53.4375 82.125 C-58.82002267 76.74247733 -58.84112846 67.76908029 -58.89648438 60.58984375 C-58.88939453 59.48769531 -58.88230469 58.38554688 -58.875 57.25 C-58.9049707 55.60837891 -58.9049707 55.60837891 -58.93554688 53.93359375 C-58.929661 43.98646693 -56.66585224 34.91597672 -51.3125 26.4375 C-50.56613281 25.22513672 -50.56613281 25.22513672 -49.8046875 23.98828125 C-48.4375 22.125 -48.4375 22.125 -46.4375 21.125 C-47.45410441 23.86201187 -48.52146756 26.26063991 -50.0625 28.75 C-51.68801814 31.10032776 -51.68801814 31.10032776 -51.4375 34.125 C-50.94443359 33.21621094 -50.94443359 33.21621094 -50.44140625 32.2890625 C-46.54179114 25.4198218 -41.96706858 19.75226414 -36.4375 14.125 C-35.87289062 13.5475 -35.30828125 12.97 -34.7265625 12.375 C-25.07464876 3.33515884 -12.91106956 -0.24167589 0 0 Z " fill="#5B5B5B" transform="translate(58.4375,3.875)"/>
<path d="M0 0 C4.32288396 0.53264106 6.62648792 1.98766183 10 4.6875 C24.46429415 15.48724777 39.23469841 18.49478754 57 16 C59.42163739 15.39015867 61.67926277 14.66306119 64.00390625 13.7578125 C66.10820233 12.95892123 68.18184807 12.4372055 70.375 11.9375 C74.06254756 11.19569621 74.06254756 11.19569621 77 9 C77.99 9.33 78.98 9.66 80 10 C65.96864954 19.6073482 50.60994459 23.72915431 33.77294922 20.58398438 C24.87613963 18.49251745 16.77410138 14.79293115 9 10 C9 9.34 9 8.68 9 8 C8.443125 7.79375 7.88625 7.5875 7.3125 7.375 C4.07498698 5.44999226 2.31768859 2.96149098 0 0 Z " fill="#B1B1B1" transform="translate(16,100)"/>
<path d="M0 0 C0.495 6.93 0.495 6.93 1 14 C1.33 14 1.66 14 2 14 C2.44539126 21.58608536 1.25212619 27.90196464 -1 35.125 C-1.28617188 36.08148438 -1.57234375 37.03796875 -1.8671875 38.0234375 C-2.56594993 40.35264559 -3.28124565 42.67688325 -4 45 C-0.7 45.66 2.6 46.32 6 47 C5.67 48.32 5.34 49.64 5 51 C1.04 51 -2.92 51 -7 51 C-7.66 52.32 -8.32 53.64 -9 55 C-9.99 55 -10.98 55 -12 55 C-11.67 53.68 -11.34 52.36 -11 51 C-11 51.66 -11 52.32 -11 53 C-10.34 53 -9.68 53 -9 53 C-7.33232239 49.99818029 -6.65531913 47.35369202 -6 44 C-5.49431676 42.05849077 -4.97326795 40.12092347 -4.4375 38.1875 C-4.16808594 37.21167969 -3.89867188 36.23585937 -3.62109375 35.23046875 C-3.31365234 34.12638672 -3.31365234 34.12638672 -3 33 C-3.66 33 -4.32 33 -5 33 C-5.103125 33.99 -5.20625 34.98 -5.3125 36 C-5.90808706 40.28297163 -7.38595027 43.99996371 -9 48 C-13.95 48.33 -18.9 48.66 -24 49 C-24 48.34 -24 47.68 -24 47 C-19.38 46.67 -14.76 46.34 -10 46 C-3.80233068 24.32154566 -3.80233068 24.32154566 -2 2 C-6.97203501 2.46251488 -9.19240289 3.89380236 -13 7 C-14.32 7 -15.64 7 -17 7 C-16.67 5.35 -16.34 3.7 -16 2 C-15.34 2.33 -14.68 2.66 -14 3 C-14.99 4.485 -14.99 4.485 -16 6 C-15.5153125 5.566875 -15.030625 5.13375 -14.53125 4.6875 C-9.455455 0.47068569 -6.58102505 -0.70510983 0 0 Z " fill="#7C7B7C" transform="translate(99,40)"/>
<path d="M0 0 C1.32 0 2.64 0 4 0 C5.12786369 3.62981482 4.57122487 5.84857767 3.546875 9.49609375 C2.43662542 14.57945077 2.30029171 19.81601681 2 25 C2.4125 24.34 2.825 23.68 3.25 23 C3.8275 22.34 4.405 21.68 5 21 C6.32 21 7.64 21 9 21 C9.28875 20.030625 9.5775 19.06125 9.875 18.0625 C11 15 11 15 13 14 C12.30710259 19.86608292 11.42848067 25.67739587 10.4375 31.5 C10.29892578 32.32242188 10.16035156 33.14484375 10.01757812 33.9921875 C9.67988697 35.99504541 9.34015815 37.99755959 9 40 C8.67 40 8.34 40 8 40 C7.34 36.7 6.68 33.4 6 30 C3.69 30.33 1.38 30.66 -1 31 C-6.27142079 23.09286882 -3.47638159 13.20651915 -1.7890625 4.46484375 C-1 1 -1 1 0 0 Z " fill="#646464" transform="translate(19,40)"/>
<path d="M0 0 C8.65431412 1.97928004 16.99370753 2.95473894 25.875 2 C26.865 1.34 27.855 0.68 28.875 0 C27.77078819 2.91110387 27.20288459 3.84059765 24.3359375 5.234375 C21.56514724 6.80382031 21.56514724 6.80382031 21.23828125 9.99609375 C21.22152344 11.13175781 21.20476562 12.26742187 21.1875 13.4375 C21.09051702 17.9242388 20.93378385 19.8824323 18.875 24 C18.875 18.06 18.875 12.12 18.875 6 C11.99566647 6.34003733 11.99566647 6.34003733 7.5 9.5625 C4.875 12 4.875 12 2.875 12 C4.16799694 9.11562221 5.53441363 7.12780579 7.875 5 C6.72 4.87625 5.565 4.7525 4.375 4.625 C1.52417365 4.27733825 -0.95705965 3.7704663 -3.75 3 C-9.72841522 1.39135012 -15.97116549 1.32843499 -22.125 1 C-22.125 2.32 -22.125 3.64 -22.125 5 C-21.465 5 -20.805 5 -20.125 5 C-20.125 6.98 -20.125 8.96 -20.125 11 C-21.775 10.67 -23.425 10.34 -25.125 10 C-25.49181223 2.54148472 -25.49181223 2.54148472 -23.8125 0.0625 C-16.63613529 -4.45595186 -7.65581723 -1.77385285 0 0 Z " fill="#EAEAEA" transform="translate(80.125,34)"/>
<path d="M0 0 C10.76467416 -0.60551292 19.7345714 1.0136935 30 4 C29.67 4.99 29.34 5.98 29 7 C26.525 6.01 26.525 6.01 24 5 C23.91959473 5.83023682 23.83918945 6.66047363 23.75634766 7.51586914 C20.79520574 37.96156148 20.79520574 37.96156148 19 50 C18.67 50 18.34 50 18 50 C18 44.72 18 39.44 18 34 C18.66 34 19.32 34 20 34 C19.97679688 33.14019531 19.95359375 32.28039062 19.9296875 31.39453125 C19.80227673 23.04912574 20.47392783 15.20263794 22 7 C21.34 7 20.68 7 20 7 C19.92483154 7.74870361 19.84966309 8.49740723 19.7722168 9.26879883 C18.25377038 24.2570012 16.57788908 39.15428419 14 54 C11.43795456 54.33719047 8.87545682 54.66987153 6.3125 55 C5.59126953 55.09539062 4.87003906 55.19078125 4.12695312 55.2890625 C0.39007129 55.76683735 -3.22291531 56.11919794 -7 56 C-4.00371461 53.00371461 -0.41506529 53.2750714 3.625 52.875 C4.42679688 52.78863281 5.22859375 52.70226562 6.0546875 52.61328125 C8.03563635 52.40103673 10.01772718 52.19950069 12 52 C13.86626612 42.04226338 14.8124233 32.05103591 15.60180664 21.96264648 C15.76360034 19.92318804 15.94120552 17.88558746 16.12109375 15.84765625 C16.2183374 14.65148682 16.31558105 13.45531738 16.41577148 12.22290039 C17 9 17 9 20 4 C10.595 2.515 10.595 2.515 1 1 C0.67 1.99 0.34 2.98 0 4 C0 2.68 0 1.36 0 0 Z " fill="#707070" transform="translate(58,35)"/>
<path d="M0 0 C1.11410952 3.34232856 0.84494103 4.34806214 0.0625 7.6875 C-2.8490777 23.0541601 -1.44225109 38.21190987 7.3125 51.5 C8.18798399 52.68201365 9.07531779 53.85606325 10 55 C11.17175781 54.855625 12.34351563 54.71125 13.55078125 54.5625 C22.06294608 53.54582457 30.40946725 52.65940619 39 53 C35.67117201 54.92552318 32.66425564 55.50675137 28.87109375 56.03515625 C27.67033203 56.20466797 26.46957031 56.37417969 25.23242188 56.54882812 C23.98009766 56.71833984 22.72777344 56.88785156 21.4375 57.0625 C19.59961914 57.32256836 19.59961914 57.32256836 17.72460938 57.58789062 C10.49572534 58.59307908 3.27569632 59.42277168 -4 60 C-4 59.34 -4 58.68 -4 58 C-0.78548731 56.39274365 2.43612536 56.94251815 6 57 C4.3270592 52.94972228 2.51986313 49.10668437 0.4375 45.25 C-5.81342027 32.69167523 -5.88842029 16.16865252 -1.75390625 2.90625 C-1 1 -1 1 0 0 Z " fill="#DFDFDF" transform="translate(5,40)"/>
<path d="M0 0 C0.33 0 0.66 0 1 0 C1.69737669 13.81838993 -2.89398057 26.40690885 -12 37 C-15.4137931 40 -15.4137931 40 -19 40 C-19 40.66 -19 41.32 -19 42 C-19.99 41.67 -20.98 41.34 -22 41 C-23.32229189 38.35541621 -23.09677194 36.32238699 -23.0625 33.375 C-23.05347656 32.37210938 -23.04445313 31.36921875 -23.03515625 30.3359375 C-23.02355469 29.56507812 -23.01195313 28.79421875 -23 28 C-22.34 28.66 -21.68 29.32 -21 30 C-20.49550598 27.41747107 -19.99625699 24.83411297 -19.5 22.25 C-19.28537109 21.15558594 -19.28537109 21.15558594 -19.06640625 20.0390625 C-18.41111121 16.60656468 -18 13.50830509 -18 10 C-18.99 11.98 -19.98 13.96 -21 16 C-21.66 16 -22.32 16 -23 16 C-22.60404157 14.51515588 -22.18249294 13.0371169 -21.75 11.5625 C-21.40195312 10.32693359 -21.40195312 10.32693359 -21.046875 9.06640625 C-20 7 -20 7 -17.953125 6.15234375 C-17.30859375 6.10207031 -16.6640625 6.05179688 -16 6 C-15.67 6.33 -15.34 6.66 -15 7 C-15.14824652 12.43950675 -16.11962266 17.84003853 -17.0625 23.1875 C-17.82335113 27.55534908 -18.20108837 31.57605584 -18 36 C-16.35 36 -14.7 36 -13 36 C-12.61134766 35.21496094 -12.61134766 35.21496094 -12.21484375 34.4140625 C-11.28552794 32.5673835 -10.33652296 30.73060055 -9.37890625 28.8984375 C-4.49246626 19.41979478 -0.98880992 10.67914714 0 0 Z " fill="#4A4A4A" transform="translate(49,45)"/>
<path d="M0 0 C1.32 0 2.64 0 4 0 C5.65 3.63 7.3 7.26 9 11 C9.33 7.37 9.66 3.74 10 0 C10.99 0 11.98 0 13 0 C13 6.6 13 13.2 13 20 C11.68 20 10.36 20 9 20 C7.35 16.37 5.7 12.74 4 9 C3.67 12.63 3.34 16.26 3 20 C2.01 20 1.02 20 0 20 C0 13.4 0 6.8 0 0 Z " fill="#FFFFFF" transform="translate(405,85)"/>
<path d="M0 0 C6.02200595 5.40568125 8.92956077 13.29093354 9.8125 21.25 C9.874375 22.4875 9.93625 23.725 10 25 C9.67 25 9.34 25 9 25 C8.73445313 24.02417969 8.46890625 23.04835938 8.1953125 22.04296875 C7.83882407 20.75773414 7.48203761 19.47258216 7.125 18.1875 C6.77695313 16.92292969 6.42890625 15.65835938 6.0703125 14.35546875 C5.14299705 10.91591287 5.14299705 10.91591287 3 8 C2.21625 8.639375 1.4325 9.27875 0.625 9.9375 C-2 12 -2 12 -4 13 C-4.46727852 14.83528863 -4.46727852 14.83528863 -4.6328125 17.03515625 C-4.71660156 17.84404297 -4.80039063 18.65292969 -4.88671875 19.48632812 C-4.96535156 20.33646484 -5.04398438 21.18660156 -5.125 22.0625 C-5.21136719 22.91650391 -5.29773438 23.77050781 -5.38671875 24.65039062 C-5.59947228 26.76610633 -5.80079953 28.88296524 -6 31 C-6.33 31 -6.66 31 -7 31 C-7.18964787 28.10109685 -7.32785971 25.21461131 -7.4375 22.3125 C-7.49615234 21.49587891 -7.55480469 20.67925781 -7.61523438 19.83789062 C-7.78524894 13.83880509 -7.78524894 13.83880509 -5.41064453 11.30224609 C-3.47265625 9.91796875 -3.47265625 9.91796875 0 8 C-0.66 8.33 -1.32 8.66 -2 9 C-10.95219048 9.70462402 -19.14967624 9.00276014 -27.875 7 C-39.3230847 4.24255747 -39.3230847 4.24255747 -50.625 6.5 C-51.40875 6.995 -52.1925 7.49 -53 8 C-52.1875 6.0625 -52.1875 6.0625 -51 4 C-42.36634307 1.12211436 -32.82583908 3.23034044 -24.11572266 4.92822266 C-19.32501579 5.83964672 -14.83463797 6.23451856 -9.9453125 6.02734375 C-8 6 -8 6 -5.125 6.6875 C-2.85503965 7.25501471 -2.85503965 7.25501471 -0.6875 5.5625 C-0.130625 5.046875 0.42625 4.53125 1 4 C0.505 2.02 0.505 2.02 0 0 Z " fill="#6C6C6C" transform="translate(108,28)"/>
<path d="M0 0 C1.32 0 2.64 0 4 0 C5.32 2.97 6.64 5.94 8 9 C8.33 6.03 8.66 3.06 9 0 C9.99 0 10.98 0 12 0 C12 6.6 12 13.2 12 20 C10.68 20 9.36 20 8 20 C6.68 16.37 5.36 12.74 4 9 C3.67 12.63 3.34 16.26 3 20 C2.01 20 1.02 20 0 20 C0 13.4 0 6.8 0 0 Z " fill="#FFFFFF" transform="translate(322,85)"/>
<path d="M0 0 C1.32 0 2.64 0 4 0 C5.32 2.97 6.64 5.94 8 9 C8.33 6.03 8.66 3.06 9 0 C9.99 0 10.98 0 12 0 C12 6.6 12 13.2 12 20 C10.68 20 9.36 20 8 20 C6.68 16.37 5.36 12.74 4 9 C3.67 12.63 3.34 16.26 3 20 C2.01 20 1.02 20 0 20 C0 13.4 0 6.8 0 0 Z " fill="#FFFFFF" transform="translate(230,85)"/>
<path d="M0 0 C4 1 4 1 5.265625 3.06640625 C6.17708333 5.37760417 7.08854167 7.68880208 8 10 C8.33 6.7 8.66 3.4 9 0 C9.99 0 10.98 0 12 0 C12 6.6 12 13.2 12 20 C8 19 8 19 6.734375 16.93359375 C5.82291667 14.62239583 4.91145833 12.31119792 4 10 C3.67 13.3 3.34 16.6 3 20 C2.01 20 1.02 20 0 20 C0 13.4 0 6.8 0 0 Z " fill="#FFFFFF" transform="translate(154,85)"/>
<path d="M0 0 C1.37562854 1.28965176 2.70766393 2.62689293 4 4 C4 4.66 4 5.32 4 6 C5.29292969 5.79503906 6.58585937 5.59007813 7.91796875 5.37890625 C17.60794894 3.86869467 27.19839233 2.51869822 37 2 C37 2.66 37 3.32 37 4 C43.93 4.495 43.93 4.495 51 5 C51 5.33 51 5.66 51 6 C49.21384277 6.21934204 49.21384277 6.21934204 47.39160156 6.44311523 C42.97071732 6.98667074 38.55024219 7.53349271 34.12988281 8.08129883 C32.21723239 8.3178669 30.30447239 8.55355083 28.39160156 8.78833008 C25.6409824 9.12608783 22.89077389 9.46703065 20.140625 9.80859375 C19.28631897 9.91280136 18.43201294 10.01700897 17.55181885 10.12437439 C16.35102692 10.27441673 16.35102692 10.27441673 15.12597656 10.42749023 C14.42426331 10.51409409 13.72255005 10.60069794 12.99957275 10.68992615 C10.95765695 11.00656614 8.9957218 11.46820723 7 12 C6.67 11.01 6.34 10.02 6 9 C13.59 8.01 21.18 7.02 29 6 C26.15375 6.2165625 26.15375 6.2165625 23.25 6.4375 C22.07050781 6.52128906 20.89101563 6.60507813 19.67578125 6.69140625 C17.31326208 6.88974739 14.95437757 7.1431865 12.60546875 7.46484375 C9.67643678 7.84406491 6.94992594 8.15794879 4 8 C1.25 5.75 1.25 5.75 0 3 C0 2.01 0 1.02 0 0 Z " fill="#787878" transform="translate(11,88)"/>
<path d="M0 0 C0.93070313 0.50789062 1.86140625 1.01578125 2.8203125 1.5390625 C10.86338719 6.26632924 21.08712582 12.75121305 24 22 C23.360625 21.34 22.72125 20.68 22.0625 20 C6.85234769 4.9176641 -7.87100393 -3.22806148 -29.40966797 -3.25317383 C-35.77820584 -3.18086981 -41.06380608 -2.35327687 -47 0 C-48.87065496 0.57678528 -50.74574483 1.13938391 -52.625 1.6875 C-53.88183594 2.06455078 -53.88183594 2.06455078 -55.1640625 2.44921875 C-55.76992188 2.63097656 -56.37578125 2.81273437 -57 3 C-54.63987122 0.2916555 -52.40006885 -0.85019927 -49.0625 -2.125 C-48.20785156 -2.45757812 -47.35320313 -2.79015625 -46.47265625 -3.1328125 C-32.69213124 -7.96579283 -12.69103891 -7.41879723 0 0 Z " fill="#5C5C5C" transform="translate(88,5)"/>
<path d="M0 0 C6 0 6 0 8.4375 1.5625 C10 4 10 4 9.75 7.75 C9.5025 8.8225 9.255 9.895 9 11 C8.34 11 7.68 11 7 11 C7.99 13.97 8.98 16.94 10 20 C9.01 20 8.02 20 7 20 C6.01 18.02 5.02 16.04 4 14 C3.67 15.98 3.34 17.96 3 20 C2.01 20 1.02 20 0 20 C0 13.4 0 6.8 0 0 Z M3 2 C3 4.64 3 7.28 3 10 C4.32 9.34 5.64 8.68 7 8 C6.67 6.35 6.34 4.7 6 3 C5.01 2.67 4.02 2.34 3 2 Z " fill="#FFFFFF" transform="translate(211,85)"/>
<path d="M0 0 C21.70729935 -0.7791254 37.29840979 3.48824647 54 18 C54.66 18.66 55.32 19.32 56 20 C55.505 21.485 55.505 21.485 55 23 C54.41734375 22.43152344 53.8346875 21.86304687 53.234375 21.27734375 C37.28638104 6.2571419 21.19706009 2.4519629 0 2 C0 1.34 0 0.68 0 0 Z " fill="#E0E0E0" transform="translate(51,1)"/>
<path d="M0 0 C3.3422443 0.48741063 3.97881091 0.86033913 6 3.4375 C7.61053931 9.01493816 7.16859432 14.12444393 5 19.4375 C2 21.4375 2 21.4375 -0.5 21.3125 C-3.6147188 20.22234842 -4.33636183 19.26093164 -6 16.4375 C-6.3984375 13.5625 -6.3984375 13.5625 -6.375 10.4375 C-6.38273437 9.40625 -6.39046875 8.375 -6.3984375 7.3125 C-5.77938211 2.84559054 -4.55786074 0.66468803 0 0 Z M-1 2.4375 C-3.22264871 5.77147306 -3.29675463 7.03264891 -3.3125 10.9375 C-3.32925781 11.8965625 -3.34601563 12.855625 -3.36328125 13.84375 C-2.95128633 16.78530511 -2.29930415 17.64173739 0 19.4375 C3.24849977 17.71523504 3.24849977 17.71523504 4 14.4375 C4.15754704 12.48072445 4.15754704 12.48072445 4.125 10.4375 C4.12757813 9.756875 4.13015625 9.07625 4.1328125 8.375 C4.06631126 6.21875219 4.06631126 6.21875219 3 3.4375 C0.98491642 2.70426204 0.98491642 2.70426204 -1 2.4375 Z " fill="#FFFFFF" transform="translate(306,84.5625)"/>
<path d="M0 0 C1.32 0 2.64 0 4 0 C4.33 1.65 4.66 3.3 5 5 C5.66 5 6.32 5 7 5 C7.16276042 7.01822917 7.32552083 9.03645833 7.48828125 11.0546875 C7.87393036 13.39519216 7.87393036 13.39519216 11 15 C10.3709375 15.19722656 9.741875 15.39445312 9.09375 15.59765625 C6.70950936 16.87871869 6.70950936 16.87871869 6.09375 19.87109375 C5.8978125 21.04800781 5.701875 22.22492187 5.5 23.4375 C3.25321653 35.2000723 -0.82315545 49.55352838 -11 57 C-14.8125 57.3125 -14.8125 57.3125 -18 57 C-18 56.67 -18 56.34 -18 56 C-17.06027344 55.85304688 -17.06027344 55.85304688 -16.1015625 55.703125 C-15.28429688 55.55359375 -14.46703125 55.4040625 -13.625 55.25 C-12.81289063 55.11078125 -12.00078125 54.9715625 -11.1640625 54.828125 C-8.8908073 54.20307388 -8.8908073 54.20307388 -7.89453125 52.28125 C-7.59933594 51.5284375 -7.30414063 50.775625 -7 50 C-6.53722656 49.09765625 -6.07445312 48.1953125 -5.59765625 47.265625 C2.08573059 32.17255975 6.0294863 18.04086042 3 1 C2.34 1 1.68 1 1 1 C0.67 1.99 0.34 2.98 0 4 C0 2.68 0 1.36 0 0 Z " fill="#5D5D5D" transform="translate(48,31)"/>
<path d="M0 0 C0.99 0 1.98 0 3 0 C3.67250524 2.58193977 4.33817901 5.16532071 5 7.75 C5.19078125 8.47960937 5.3815625 9.20921875 5.578125 9.9609375 C6.46515964 13.44571646 7 16.38123722 7 20 C6.01 20 5.02 20 4 20 C3.67 18.02 3.34 16.04 3 14 C2.01 14 1.02 14 0 14 C-0.33 15.98 -0.66 17.96 -1 20 C-1.99 20 -2.98 20 -4 20 C-3.34034961 13.13963599 -1.7637236 6.65556077 0 0 Z M1 8 C2 11 2 11 2 11 Z " fill="#FFFFFF" transform="translate(347,85)"/>
<path d="M0 0 C0.99 0.33 1.98 0.66 3 1 C3.70776367 2.85766602 3.70776367 2.85766602 4.16796875 5.25390625 C4.42416992 6.53491211 4.42416992 6.53491211 4.68554688 7.84179688 C4.85119141 8.73962891 5.01683594 9.63746094 5.1875 10.5625 C5.36474609 11.46419922 5.54199219 12.36589844 5.72460938 13.29492188 C6.16175506 15.52790927 6.58627093 17.76257597 7 20 C6.01 20 5.02 20 4 20 C3.67 18.02 3.34 16.04 3 14 C2.01 14.33 1.02 14.66 0 15 C-1.21869929 17.50447516 -1.21869929 17.50447516 -2 20 C-2.99 19.67 -3.98 19.34 -5 19 C-4.35720991 16.20760027 -3.71091335 13.41609416 -3.0625 10.625 C-2.88009766 9.8309375 -2.69769531 9.036875 -2.50976562 8.21875 C-2.33251953 7.45820312 -2.15527344 6.69765625 -1.97265625 5.9140625 C-1.81031494 5.2123291 -1.64797363 4.5105957 -1.48071289 3.78759766 C-1 2 -1 2 0 0 Z M1 9 C0.67 9.66 0.34 10.32 0 11 C0.66 11 1.32 11 2 11 C1.67 10.34 1.34 9.68 1 9 Z " fill="#FFFFFF" transform="translate(255,85)"/>
<path d="M0 0 C2.97 0 5.94 0 9 0 C8.67 0.99 8.34 1.98 8 3 C6.68 3 5.36 3 4 3 C3.67 4.65 3.34 6.3 3 8 C4.65 8 6.3 8 8 8 C8.33 8.99 8.66 9.98 9 11 C7.02 11 5.04 11 3 11 C3 13.31 3 15.62 3 18 C4.98 18 6.96 18 9 18 C9 18.66 9 19.32 9 20 C6.03 20 3.06 20 0 20 C0 13.4 0 6.8 0 0 Z " fill="#FFFFFF" transform="translate(193,85)"/>
<path d="M0 0 C3.63 0 7.26 0 11 0 C11 0.99 11 1.98 11 3 C10.01 3 9.02 3 8 3 C8 8.61 8 14.22 8 20 C6.68 20 5.36 20 4 20 C3.67 14.39 3.34 8.78 3 3 C2.01 2.67 1.02 2.34 0 2 C0 1.34 0 0.68 0 0 Z " fill="#FFFFFF" transform="translate(174,85)"/>
<path d="M0 0 C0.33 0 0.66 0 1 0 C0.30710259 5.86608292 -0.57151933 11.67739587 -1.5625 17.5 C-1.70107422 18.32242188 -1.83964844 19.14484375 -1.98242188 19.9921875 C-2.32011303 21.99504541 -2.65984185 23.99755959 -3 26 C-3.33 26 -3.66 26 -4 26 C-4.33 22.04 -4.66 18.08 -5 14 C-6.98 14.99 -6.98 14.99 -9 16 C-9.99 16 -10.98 16 -12 16 C-12 15.01 -12 14.02 -12 13 C-10.35666496 11.96210419 -8.68756133 10.96432076 -7 10 C-6.34 9.01 -5.68 8.02 -5 7 C-4.34 7 -3.68 7 -3 7 C-2.690625 6.030625 -2.38125 5.06125 -2.0625 4.0625 C-1 1 -1 1 0 0 Z " fill="#DFDFDF" transform="translate(31,54)"/>
<path d="M0 0 C0.66 0 1.32 0 2 0 C1.34 8.91 0.68 17.82 0 27 C-0.66 27 -1.32 27 -2 27 C-1.97679688 27.89203125 -1.95359375 28.7840625 -1.9296875 29.703125 C-1.91164063 30.87359375 -1.89359375 32.0440625 -1.875 33.25 C-1.85179688 34.41015625 -1.82859375 35.5703125 -1.8046875 36.765625 C-1.9896051 39.82786046 -2.39176977 41.44202751 -4 44 C-4.56839435 29.87434793 -4.49602367 13.48807101 0 0 Z " fill="#EFEFEF" transform="translate(78,42)"/>
<path d="M0 0 C0 3.59880704 -0.95596496 4.83046321 -2.8125 7.875 C-10.49901615 21.75797479 -11.2752406 39.77140575 -7 55 C-6.67 55.33 -6.34 55.66 -6 56 C-5.95936168 57.66617115 -5.957279 59.33388095 -6 61 C-11.38252267 55.61747733 -11.40362846 46.64408029 -11.45898438 39.46484375 C-11.45189453 38.36269531 -11.44480469 37.26054688 -11.4375 36.125 C-11.4674707 34.48337891 -11.4674707 34.48337891 -11.49804688 32.80859375 C-11.49215178 22.84588255 -9.24739315 13.76522585 -3.8125 5.3125 C-3.30332031 4.50425781 -2.79414063 3.69601563 -2.26953125 2.86328125 C-1 1 -1 1 0 0 Z " fill="#525252" transform="translate(11,25)"/>
<path d="M0 0 C0 0.99 0 1.98 0 3 C-2.31 3 -4.62 3 -7 3 C-7.08107583 4.93681161 -7.13922475 6.8745934 -7.1875 8.8125 C-7.22230469 9.89144531 -7.25710938 10.97039062 -7.29296875 12.08203125 C-7.23391403 14.97009956 -7.23391403 14.97009956 -5.73828125 16.88671875 C-3.7826375 18.35954811 -3.7826375 18.35954811 0 18 C0 18.66 0 19.32 0 20 C-2.6875 20.8125 -2.6875 20.8125 -6 21 C-8.875 19.25 -8.875 19.25 -11 16 C-11.88770421 10.84359639 -11.75151687 6.53309441 -9.4375 1.8125 C-6.18103744 -0.60897216 -3.9597092 -0.38074127 0 0 Z " fill="#FFFFFF" transform="translate(438,85)"/>
<path d="M0 0 C-3.32882799 1.92552318 -6.33574436 2.50675137 -10.12890625 3.03515625 C-11.32966797 3.20466797 -12.53042969 3.37417969 -13.76757812 3.54882812 C-15.01990234 3.71833984 -16.27222656 3.88785156 -17.5625 4.0625 C-19.40038086 4.32256836 -19.40038086 4.32256836 -21.27539062 4.58789062 C-28.50427466 5.59307908 -35.72430368 6.42277168 -43 7 C-43 6.34 -43 5.68 -43 5 C-40.59454362 3.79727181 -39.05003047 3.89928528 -36.375 3.9375 C-35.14910156 3.95103516 -35.14910156 3.95103516 -33.8984375 3.96484375 C-32.95871094 3.98224609 -32.95871094 3.98224609 -32 4 C-32 3.01 -32 2.02 -32 1 C-30.98421875 1.18433594 -29.9684375 1.36867188 -28.921875 1.55859375 C-25.03116184 1.99649274 -22.08599436 1.7386603 -18.25 1.0625 C-12.09611895 0.08077808 -6.2201939 -0.22849692 0 0 Z " fill="#E3E3E3" transform="translate(44,93)"/>
<path d="M0 0 C0.33 0 0.66 0 1 0 C1 1.65 1 3.3 1 5 C3.31 5.33 5.62 5.66 8 6 C8 6.33 8 6.66 8 7 C0.97942879 8.09266243 -5.90468303 8.11532882 -13 8.0625 C-14.15628906 8.05798828 -15.31257813 8.05347656 -16.50390625 8.04882812 C-19.33599225 8.03712529 -22.16796811 8.02072996 -25 8 C-24.67 7.01 -24.34 6.02 -24 5 C-16.08 4.67 -8.16 4.34 0 4 C0 2.68 0 1.36 0 0 Z " fill="#A2A2A2" transform="translate(72,85)"/>
<path d="M0 0 C3.3 0 6.6 0 10 0 C10 0.99 10 1.98 10 3 C9.01 3 8.02 3 7 3 C7 8.61 7 14.22 7 20 C6.01 20 5.02 20 4 20 C3.67 14.39 3.34 8.78 3 3 C2.01 3 1.02 3 0 3 C0 2.01 0 1.02 0 0 Z " fill="#FFFFFF" transform="translate(269,85)"/>
<path d="M0 0 C0 0.99 0 1.98 0 3 C-0.969375 3.45375 -1.93875 3.9075 -2.9375 4.375 C-4.70297597 5.30418556 -4.70297597 5.30418556 -6 7 C-6.61132131 10.33842133 -6.75020308 13.51475738 -6.796875 16.90625 C-7 20 -7 20 -9 24 C-9 18.06 -9 12.12 -9 6 C-11.31 6 -13.62 6 -16 6 C-14.68 5.34 -13.36 4.68 -12 4 C-12.33 3.34 -12.66 2.68 -13 2 C-12.22914062 2.02320313 -11.45828125 2.04640625 -10.6640625 2.0703125 C-9.15972656 2.09738281 -9.15972656 2.09738281 -7.625 2.125 C-6.62726563 2.14820313 -5.62953125 2.17140625 -4.6015625 2.1953125 C-1.83737827 2.27216848 -1.83737827 2.27216848 0 0 Z " fill="#E5E5E5" transform="translate(108,34)"/>
<path d="M0 0 C0.99 0 1.98 0 3 0 C3 5.94 3 11.88 3 18 C4.65 18 6.3 18 8 18 C8 18.66 8 19.32 8 20 C5.36 20 2.72 20 0 20 C0 13.4 0 6.8 0 0 Z " fill="#FFFFFF" transform="translate(363,85)"/>
<path d="M0 0 C3.96 0 7.92 0 12 0 C12 0.66 12 1.32 12 2 C10.02 2 8.04 2 6 2 C5.74992187 2.71800781 5.49984375 3.43601562 5.2421875 4.17578125 C3.88152525 7.26936241 2.23664746 9.55391704 0.125 12.1875 C-0.55304688 13.04730469 -1.23109375 13.90710938 -1.9296875 14.79296875 C-3.89721545 16.89042779 -5.35962136 17.94029646 -8 19 C-6.13749008 14.90247817 -3.46991368 11.70006269 -0.65625 8.21875 C0.84866902 6.2027264 1.96204229 4.28350697 3 2 C2.01 2 1.02 2 0 2 C0 1.34 0 0.68 0 0 Z " fill="#DCDCDC" transform="translate(108,87)"/>
<path d="M0 0 C0.33 0 0.66 0 1 0 C1.82555811 21.81378535 1.82555811 21.81378535 -3 30 C-3.66 30 -4.32 30 -5 30 C-4.86722656 29.40832031 -4.73445313 28.81664063 -4.59765625 28.20703125 C-4.42105469 27.41683594 -4.24445313 26.62664062 -4.0625 25.8125 C-3.88847656 25.03519531 -3.71445313 24.25789063 -3.53515625 23.45703125 C-3.35855469 22.64621094 -3.18195313 21.83539063 -3 21 C-2.82339844 20.22398438 -2.64679688 19.44796875 -2.46484375 18.6484375 C-1.67729933 14.16141969 -1.54762888 9.62474249 -1.28125 5.08203125 C-1 2 -1 2 0 0 Z " fill="#E0E0E0" transform="translate(120,54)"/>
<path d="M0 0 C0.99 0 1.98 0 3 0 C3 6.6 3 13.2 3 20 C2.01 20 1.02 20 0 20 C0 13.4 0 6.8 0 0 Z " fill="#FFFFFF" transform="translate(392,85)"/>
<path d="M0 0 C0.99 0 1.98 0 3 0 C3 6.6 3 13.2 3 20 C2.01 20 1.02 20 0 20 C0 13.4 0 6.8 0 0 Z " fill="#FFFFFF" transform="translate(288,85)"/>
<path d="M0 0 C0.99 0 1.98 0 3 0 C3 6.6 3 13.2 3 20 C2.01 20 1.02 20 0 20 C0 13.4 0 6.8 0 0 Z " fill="#FEFEFE" transform="translate(141,85)"/>
<path d="M0 0 C0.99 0 1.98 0 3 0 C3.2361959 6.40353322 2.823321 11.84629161 1 18 C0.01 18 -0.98 18 -2 18 C-1.85860519 15.74971671 -1.71171997 13.49977794 -1.5625 11.25 C-1.48128906 9.99703125 -1.40007812 8.7440625 -1.31640625 7.453125 C-1.07484478 4.81682447 -0.75716066 2.51962706 0 0 Z " fill="#B3B3B3" transform="translate(98,54)"/>
<path d="M0 0 C0 4.38968456 -2.12805101 5.76905739 -5 9 C-4.34 9.33 -3.68 9.66 -3 10 C-4.125 11.5 -4.125 11.5 -6 13 C-8 13 -10 13 -12 13 C-13.68029994 13.97691857 -15.34928604 14.97388051 -17 16 C-17.99 15.67 -18.98 15.34 -20 15 C-18.96552734 14.38125 -18.96552734 14.38125 -17.91015625 13.75 C-11.33787428 9.71106677 -5.58923253 5.31322105 0 0 Z " fill="#898989" transform="translate(105,97)"/>
<path d="M0 0 C1.37562854 1.28965176 2.70766393 2.62689293 4 4 C4 4.66 4 5.32 4 6 C4.57967529 5.90912109 5.15935059 5.81824219 5.7565918 5.72460938 C8.39963588 5.31250055 11.04354162 4.90619983 13.6875 4.5 C14.59951172 4.35691406 15.51152344 4.21382813 16.45117188 4.06640625 C17.78051758 3.86337891 17.78051758 3.86337891 19.13671875 3.65625 C19.94842529 3.53056641 20.76013184 3.40488281 21.59643555 3.27539062 C24.08533405 2.99022277 26.49706689 2.95325261 29 3 C25.85560504 6.14439496 21.97504662 6.0403833 17.6875 6.6875 C16.40456055 6.90116211 16.40456055 6.90116211 15.09570312 7.11914062 C6.97339167 8.38372978 6.97339167 8.38372978 3 7 C0.55352838 4.46916729 0 3.5747073 0 0 Z " fill="#5F5F5F" transform="translate(11,88)"/>
<path d="M0 0 C0.66 0 1.32 0 2 0 C1.15566865 8.02114786 0.08446979 16.00861581 -1 24 C-1.66 24 -2.32 24 -3 24 C-3.36741339 15.44062871 -2.73977333 8.13777913 0 0 Z " fill="#DDDDDD" transform="translate(20,41)"/>
<path d="M0 0 C1.51633105 2.91809487 2.7599226 5.86823199 3.9375 8.9375 C5.06419359 11.8262407 6.12532925 14.19447642 7.8125 16.8125 C9 19 9 19 8.6875 21.8125 C8.460625 22.534375 8.23375 23.25625 8 24 C7.74605469 23.47019531 7.49210938 22.94039062 7.23046875 22.39453125 C6.29220619 20.56864252 5.28083605 18.7801321 4.23828125 17.01171875 C3.60277344 15.91472656 2.96726562 14.81773438 2.3125 13.6875 C1.66925781 12.59824219 1.02601562 11.50898437 0.36328125 10.38671875 C-1.23603841 6.41362378 -0.94545974 4.12136871 0 0 Z " fill="#DADADA" transform="translate(4,73)"/>
<path d="M0 0 C0.66 0 1.32 0 2 0 C1.44854729 5.23880078 0.57077907 9.97350697 -1 15 C2.63 15 6.26 15 10 15 C10 15.33 10 15.66 10 16 C9.15695313 16.03738281 8.31390625 16.07476562 7.4453125 16.11328125 C5.80175781 16.21189453 5.80175781 16.21189453 4.125 16.3125 C3.03445312 16.37050781 1.94390625 16.42851563 0.8203125 16.48828125 C-0.11039062 16.65714844 -1.04109375 16.82601562 -2 17 C-2.66 17.99 -3.32 18.98 -4 20 C-4.66 19.67 -5.32 19.34 -6 19 C-5.505 17.515 -5.505 17.515 -5 16 C-4.34 16 -3.68 16 -3 16 C-2.95101562 15.43152344 -2.90203125 14.86304687 -2.8515625 14.27734375 C-2.36856919 9.28918871 -1.52361837 4.77400422 0 0 Z " fill="#E6E6E6" transform="translate(94,73)"/>
<path d="M0 0 C6.46039725 5.38366438 8.90699584 12.37058426 9.75 20.625 C9.84865322 22.08237713 9.93789823 23.54060837 10 25 C8.0580558 21.32150954 6.53497701 17.48523922 5 13.625 C4.73960938 12.97789063 4.47921875 12.33078125 4.2109375 11.6640625 C2.67409073 7.81418372 1.2704126 3.94560835 0 0 Z " fill="#DDDDDD" transform="translate(110,28)"/>
<path d="M0 0 C0.90105469 0.11988281 1.80210938 0.23976562 2.73046875 0.36328125 C3.41753906 0.47027344 4.10460937 0.57726563 4.8125 0.6875 C4.8125 1.0175 4.8125 1.3475 4.8125 1.6875 C1.5125 1.6875 -1.7875 1.6875 -5.1875 1.6875 C-5.1875 3.0075 -5.1875 4.3275 -5.1875 5.6875 C-4.5275 5.6875 -3.8675 5.6875 -3.1875 5.6875 C-3.1875 7.6675 -3.1875 9.6475 -3.1875 11.6875 C-4.8375 11.3575 -6.4875 11.0275 -8.1875 10.6875 C-8.55391221 3.23711832 -8.55391221 3.23711832 -7 0.90625 C-4.48022853 -0.78807909 -2.96523193 -0.42360456 0 0 Z " fill="#9B9B9B" transform="translate(63.1875,33.3125)"/>
<path d="M0 0 C-1.17960148 2.68091246 -2.65340199 4.96053225 -4.375 7.3125 C-6.87507845 10.73990725 -8.95334413 14.2856986 -11 18 C-11.703125 16.34765625 -11.703125 16.34765625 -12 14 C-10.671875 11.30859375 -10.671875 11.30859375 -8.75 8.4375 C-8.12609375 7.48746094 -7.5021875 6.53742187 -6.859375 5.55859375 C-2.81984733 0 -2.81984733 0 0 0 Z " fill="#DCDCDC" transform="translate(18,21)"/>
<path d="M0 0 C0.33 0.99 0.66 1.98 1 3 C1.66 3 2.32 3 3 3 C3 4.32 3 5.64 3 7 C2.34 7 1.68 7 1 7 C1.02320312 7.89203125 1.04640625 8.7840625 1.0703125 9.703125 C1.08835937 10.87359375 1.10640625 12.0440625 1.125 13.25 C1.14820312 14.41015625 1.17140625 15.5703125 1.1953125 16.765625 C1.0103949 19.82786046 0.60823023 21.44202751 -1 24 C-1.18451025 7.1070615 -1.18451025 7.1070615 0 0 Z " fill="#E7E7E7" transform="translate(75,62)"/>
<path d="M0 0 C2.475 0.495 2.475 0.495 5 1 C5 1.99 5 2.98 5 4 C5.515625 4.226875 6.03125 4.45375 6.5625 4.6875 C9.89547005 6.48217618 13.14703671 8.49965015 16 11 C16 11.66 16 12.32 16 13 C11.25 11.125 11.25 11.125 9 10 C9 9.34 9 8.68 9 8 C8.443125 7.79375 7.88625 7.5875 7.3125 7.375 C4.07498698 5.44999226 2.31768859 2.96149098 0 0 Z " fill="#D2D2D2" transform="translate(16,100)"/>
<path d="M0 0 C0.33 0.99 0.66 1.98 1 3 C-1.88406243 6.40843742 -3.3708265 7.86591384 -7.8125 8.8125 C-9.3903125 8.9053125 -9.3903125 8.9053125 -11 9 C-11 8.34 -11 7.68 -11 7 C-9.9275 6.401875 -8.855 5.80375 -7.75 5.1875 C-5.01041007 3.62598931 -2.46743122 1.97394497 0 0 Z " fill="#E5E5E5" transform="translate(41,78)"/>
<path d="M0 0 C1.32 0 2.64 0 4 0 C4.33 1.65 4.66 3.3 5 5 C5.66 5 6.32 5 7 5 C7.16276042 7.01822917 7.32552083 9.03645833 7.48828125 11.0546875 C7.87393036 13.39519216 7.87393036 13.39519216 11 15 C10.01 15.33 9.02 15.66 8 16 C4.67042052 13.40019136 4.38238288 10.88935445 3.8125 6.8125 C3.65394531 5.72582031 3.49539062 4.63914062 3.33203125 3.51953125 C3.16767578 2.27236328 3.16767578 2.27236328 3 1 C2.34 1 1.68 1 1 1 C0.67 1.99 0.34 2.98 0 4 C0 2.68 0 1.36 0 0 Z " fill="#484848" transform="translate(48,31)"/>
<path d="M0 0 C3 2 3 2 3.40625 3.875 C3.46875 5.29166667 3.53125 6.70833333 3.59375 8.125 C3.86119906 10.4099322 3.86119906 10.4099322 7 12 C6.01 12 5.02 12 4 12 C4 12.66 4 13.32 4 14 C3.01 13.67 2.02 13.34 1 13 C-0.32229189 10.35541621 -0.09677194 8.32238699 -0.0625 5.375 C-0.05347656 4.37210937 -0.04445313 3.36921875 -0.03515625 2.3359375 C-0.02355469 1.56507812 -0.01195313 0.79421875 0 0 Z " fill="#979797" transform="translate(26,73)"/>
<path d="M0 0 C0.33 0 0.66 0 1 0 C1.43262494 8.57238313 0.84647664 15.73028503 -4 23 C-3.44770321 17.75318047 -2.45252637 13.0838423 -1 8 C-0.57710689 5.33577343 -0.28256866 2.68440225 0 0 Z " fill="#616161" transform="translate(49,45)"/>
<path d="M0 0 C4.95 0.33 9.9 0.66 15 1 C14.67 1.66 14.34 2.32 14 3 C9.05 3 4.1 3 -1 3 C-0.67 2.01 -0.34 1.02 0 0 Z " fill="#DADADA" transform="translate(48,90)"/>
<path d="M0 0 C0.33 0 0.66 0 1 0 C0.7357513 5.37305699 0.7357513 5.37305699 0 8 C-2.5625 10 -2.5625 10 -5 11 C-5 9.68 -5 8.36 -5 7 C-4.34 7 -3.68 7 -3 7 C-2.690625 6.030625 -2.38125 5.06125 -2.0625 4.0625 C-1 1 -1 1 0 0 Z " fill="#ECECEC" transform="translate(31,54)"/>
<path d="M0 0 C0 0.66 0 1.32 0 2 C1.32 2.66 2.64 3.32 4 4 C-0.8333472 4.08333357 -5.23692563 3.95261487 -10 3 C-6.84916414 -0.15083586 -4.41812253 0 0 0 Z " fill="#9F9F9F" transform="translate(48,90)"/>
<path d="M0 0 C0.80050781 0.12761719 1.60101563 0.25523438 2.42578125 0.38671875 C3.23402344 0.50660156 4.04226562 0.62648437 4.875 0.75 C5.48988281 0.85699219 6.10476562 0.96398438 6.73828125 1.07421875 C6.40828125 2.06421875 6.07828125 3.05421875 5.73828125 4.07421875 C3.26328125 3.08421875 3.26328125 3.08421875 0.73828125 2.07421875 C0.40828125 3.06421875 0.07828125 4.05421875 -0.26171875 5.07421875 C-0.26171875 4.41421875 -0.26171875 3.75421875 -0.26171875 3.07421875 C-1.25171875 3.07421875 -2.24171875 3.07421875 -3.26171875 3.07421875 C-3.59171875 4.06421875 -3.92171875 5.05421875 -4.26171875 6.07421875 C-4.59171875 5.08421875 -4.92171875 4.09421875 -5.26171875 3.07421875 C-3.53640014 0.90221572 -2.83921072 0.09316926 0 0 Z " fill="#505050" transform="translate(81.26171875,37.92578125)"/>
<path d="M0 0 C-3.96926035 2.2227858 -8.63843451 4.47813386 -13.21875 3.55078125 C-13.8065625 3.36902344 -14.394375 3.18726563 -15 3 C-13.4447088 2.29634398 -11.88035173 1.61270622 -10.3125 0.9375 C-9.44238281 0.55464844 -8.57226562 0.17179688 -7.67578125 -0.22265625 C-4.67786136 -1.0935848 -2.96719847 -0.85006226 0 0 Z " fill="#D9D9D9" transform="translate(52,3)"/>
<path d="M0 0 C3.96 0 7.92 0 12 0 C12 0.66 12 1.32 12 2 C10.02 2 8.04 2 6 2 C6 2.66 6 3.32 6 4 C5.34 4 4.68 4 4 4 C4 3.34 4 2.68 4 2 C2.68 2 1.36 2 0 2 C0 1.34 0 0.68 0 0 Z " fill="#DEDEDE" transform="translate(108,87)"/>
<path d="M0 0 C0.99 0 1.98 0 3 0 C4.33257403 9.41002278 4.33257403 9.41002278 3 14 C2.67 14 2.34 14 2 14 C1.34 9.38 0.68 4.76 0 0 Z " fill="#C5C5C5" transform="translate(25,66)"/>
<path d="M0 0 C0.66 0 1.32 0 2 0 C2.98844951 3.94647618 2.96191905 7.27392964 2.5625 11.3125 C2.46066406 12.38113281 2.35882813 13.44976562 2.25390625 14.55078125 C2.12822266 15.76314453 2.12822266 15.76314453 2 17 C1.67 17 1.34 17 1 17 C0.67 11.39 0.34 5.78 0 0 Z " fill="#A5A5A5" transform="translate(49,32)"/>
<path d="M0 0 C0.33 0.99 0.66 1.98 1 3 C-1.31 4.98 -3.62 6.96 -6 9 C-6.66 8.34 -7.32 7.68 -8 7 C-5.36 4.69 -2.72 2.38 0 0 Z " fill="#C9C9C9" transform="translate(24,13)"/>
<path d="M0 0 C3.86379545 3.00517424 6.90983192 5.45081065 9 10 C8.67 10.66 8.34 11.32 8 12 C6.33333333 10.33333333 4.66666667 8.66666667 3 7 C2.401875 6.484375 1.80375 5.96875 1.1875 5.4375 C0 4 0 4 0 0 Z " fill="#9B9B9B" transform="translate(107,22)"/>
<path d="M0 0 C1.32 0 2.64 0 4 0 C4.33 0.66 4.66 1.32 5 2 C7.02463255 2.65213292 7.02463255 2.65213292 9 3 C7.375 8.75 7.375 8.75 4 11 C4.66 9.02 5.32 7.04 6 5 C5.01 4.34 4.02 3.68 3 3 C3 2.34 3 1.68 3 1 C2.01 0.67 1.02 0.34 0 0 Z " fill="#656565" transform="translate(102,86)"/>
<path d="M0 0 C0.80824219 0.19464844 1.61648437 0.38929688 2.44921875 0.58984375 C3.06410156 0.74582031 3.67898437 0.90179688 4.3125 1.0625 C3.9825 1.7225 3.6525 2.3825 3.3125 3.0625 C2.054375 2.93875 0.79625 2.815 -0.5 2.6875 C-1.56154297 2.58308594 -1.56154297 2.58308594 -2.64453125 2.4765625 C-4.6875 2.0625 -4.6875 2.0625 -7.6875 0.0625 C-4.39053895 -1.03648702 -3.28255097 -0.80874444 0 0 Z " fill="#D0D0D0" transform="translate(77.6875,2.9375)"/>
<path d="M0 0 C0.66 0.66 1.32 1.32 2 2 C-1.63 2.33 -5.26 2.66 -9 3 C-9 2.34 -9 1.68 -9 1 C-5.98675805 -0.50662097 -3.31713623 -0.17770373 0 0 Z " fill="#CCCCCC" transform="translate(10,97)"/>
<path d="M0 0 C1.32 0.33 2.64 0.66 4 1 C3.67 2.32 3.34 3.64 3 5 C2.67 4.34 2.34 3.68 2 3 C1.01 4.98 0.02 6.96 -1 9 C-1.66 9 -2.32 9 -3 9 C-2.01 6.03 -1.02 3.06 0 0 Z " fill="#7D7D7D" transform="translate(29,52)"/>
<path d="M0 0 C4.455 0.99 4.455 0.99 9 2 C4.78370866 4.10814567 2.60209225 4.17700355 -2 4 C-1.34 3.67 -0.68 3.34 0 3 C0 2.01 0 1.02 0 0 Z " fill="#EFEFEF" transform="translate(12,94)"/>
<path d="M0 0 C0.66 0 1.32 0 2 0 C2.33 2.64 2.66 5.28 3 8 C2.01 8 1.02 8 0 8 C0 5.36 0 2.72 0 0 Z " fill="#D9D9D9" transform="translate(55,36)"/>
<path d="M0 0 C0.66 0 1.32 0 2 0 C1.67 2.97 1.34 5.94 1 9 C0.34 8.34 -0.32 7.68 -1 7 C-0.625 3.375 -0.625 3.375 0 0 Z " fill="#CECECE" transform="translate(20,41)"/>
<path d="M0 0 C-2.64 1.65 -5.28 3.3 -8 5 C-8 4.01 -8 3.02 -8 2 C-3.71900826 -1.23966942 -3.71900826 -1.23966942 0 0 Z " fill="#E2E1E2" transform="translate(96,110)"/>
<path d="M0 0 C0.66 0.99 1.32 1.98 2 3 C0.02 5.97 0.02 5.97 -2 9 C-2.66 8.34 -3.32 7.68 -4 7 C-2.68 4.69 -1.36 2.38 0 0 Z " fill="#D4D4D4" transform="translate(111,89)"/>
<path d="M0 0 C0.7425 0.185625 1.485 0.37125 2.25 0.5625 C4.94990963 0.99203108 6.44631077 0.85122974 9 0 C7.3125 2.0625 7.3125 2.0625 5 4 C2.25 3.75 2.25 3.75 0 3 C0 2.01 0 1.02 0 0 Z " fill="#676767" transform="translate(29,80)"/>
<path d="M0 0 C1.64826111 2.96687001 2.44271087 5.65626525 3 9 C1.68 8.34 0.36 7.68 -1 7 C-0.67 4.69 -0.34 2.38 0 0 Z " fill="#C6C6C6" transform="translate(4,73)"/>
<path d="M0 0 C0.99 0 1.98 0 3 0 C2.67 2.31 2.34 4.62 2 7 C1.01 7.33 0.02 7.66 -1 8 C-0.67 5.36 -0.34 2.72 0 0 Z " fill="#C9C9C9" transform="translate(98,54)"/>
<path d="M0 0 C0.33 0 0.66 0 1 0 C1.25 2.25 1.25 2.25 1 5 C-1 7.3125 -1 7.3125 -3 9 C-2.5020163 5.26512223 -2.12508244 3.18762365 0 0 Z " fill="#D4D4D4" transform="translate(9,30)"/>
<path d="M0 0 C0.66 0.99 1.32 1.98 2 3 C-2.75 7 -2.75 7 -5 7 C-3.70700306 4.11562221 -2.34058637 2.12780579 0 0 Z " fill="#BDBDBD" transform="translate(88,39)"/>
</svg>
